Coordinates
version=1
nRows=49
nColumns=12
inDegrees=yes

Units are S.I. units (second, meters, Newtons, ...)
Angles are in degrees

endheader
time	SC_y	SC_z	SC_x	AC_y	AC_z	AC_x	GH_y	GH_z	GH_yy	EL_x	PS_y
       0.0              -26.34          12.17          10.87          66.25           8.48          12.13         -168.8          35.28          112.7          56.36          57.55
 0.0001588              -26.34          12.17          10.88          66.25          8.478          12.13         -168.8          35.27          112.6          56.35          57.55
 0.0003177              -26.34          12.17          10.89          66.25          8.477          12.13         -168.8          35.27          112.6          56.35          57.54
 0.0004765              -26.35          12.18          10.89          66.25          8.475          12.12         -168.8          35.26          112.6          56.34          57.54
 0.0006354              -26.35          12.18          10.91          66.24          8.473          12.12         -168.8          35.25          112.6          56.33          57.54
 0.0007942              -26.36          12.18          10.92          66.24          8.471          12.12         -168.8          35.24          112.5          56.33          57.54
  0.000953              -26.36          12.18          10.93          66.24          8.469          12.12         -168.8          35.23          112.5          56.32          57.54
  0.001112              -26.36          12.18          10.94          66.23          8.467          12.11         -168.8          35.22          112.5          56.31          57.53
  0.001271              -26.37          12.18          10.95          66.23          8.464          12.11         -168.8          35.21          112.4           56.3          57.53
   0.00143              -26.37          12.19          10.97          66.22          8.461          12.11         -168.8           35.2          112.4           56.3          57.53
  0.001588              -26.38          12.19          10.98          66.22          8.458           12.1         -168.8          35.18          112.4          56.29          57.52
  0.001747              -26.39          12.19           11.0          66.22          8.455           12.1         -168.8          35.17          112.3          56.28          57.52
  0.001906              -26.39          12.19          11.02          66.21          8.452          12.09         -168.8          35.15          112.3          56.27          57.52
  0.002065               -26.4           12.2          11.03           66.2          8.448          12.09         -168.8          35.14          112.2          56.25          57.51
  0.002224              -26.41           12.2          11.06           66.2          8.445          12.08         -168.8          35.12          112.2          56.24          57.51
  0.002383              -26.41           12.2          11.08          66.19           8.44          12.08         -168.8           35.1          112.1          56.23           57.5
  0.002541              -26.42          12.21           11.1          66.18          8.436          12.07         -168.7          35.08          112.0          56.21           57.5
    0.0027              -26.43          12.21          11.13          66.18          8.431          12.07         -168.7          35.06          112.0           56.2          57.49
  0.002859              -26.44          12.22          11.16          66.17          8.425          12.06         -168.7          35.03          111.9          56.18          57.49
  0.003018              -26.45          12.22          11.19          66.16          8.419          12.05         -168.7          35.01          111.8          56.16          57.48
  0.003177              -26.47          12.23          11.22          66.15          8.413          12.04         -168.7          34.98          111.7          56.14          57.47
  0.003336              -26.48          12.23          11.26          66.14          8.406          12.03         -168.7          34.95          111.6          56.11          57.47
  0.003494               -26.5          12.24           11.3          66.12          8.398          12.02         -168.7          34.91          111.5          56.09          57.46
  0.003653              -26.51          12.25          11.35          66.11          8.389          12.01         -168.6          34.87          111.4          56.06          57.45
  0.003812              -26.53          12.26           11.4          66.09          8.379           12.0         -168.6          34.83          111.3          56.03          57.44
  0.003971              -26.55          12.27          11.46          66.08          8.368          11.98         -168.6          34.78          111.1          55.99          57.42
   0.00413              -26.58          12.28          11.52          66.06          8.356          11.96         -168.6          34.72          111.0          55.95          57.41
  0.004289               -26.6          12.29           11.6          66.04          8.342          11.95         -168.5          34.66          110.8          55.91           57.4
  0.004447              -26.63           12.3          11.68          66.01          8.326          11.92         -168.5          34.59          110.6          55.86          57.38
  0.004606              -26.67          12.32          11.77          65.98          8.309           11.9         -168.5          34.51          110.3           55.8          57.36
  0.004765              -26.71          12.33          11.88          65.95          8.288          11.87         -168.4          34.42          110.0          55.73          57.34
  0.004924              -26.75          12.35           12.0          65.91          8.265          11.84         -168.4          34.32          109.7          55.66          57.31
  0.005083               -26.8          12.38          12.14          65.87          8.238          11.81         -168.3           34.2          109.4          55.57          57.28
  0.005242              -26.86           12.4          12.31          65.82          8.207          11.76         -168.3          34.06          108.9          55.47          57.25
  0.005401              -26.93          12.43           12.5          65.77          8.171          11.72         -168.2          33.89          108.4          55.35          57.21
  0.005559              -27.02          12.47          12.73           65.7          8.128          11.66         -168.1           33.7          107.8          55.21          57.16
  0.005718              -27.11          12.51           13.0          65.62          8.077          11.59         -168.0          33.47          107.2          55.04           57.1
  0.005877              -27.23          12.57          13.32          65.52          8.016          11.51         -167.9           33.2          106.3          54.84          57.04
  0.006036              -27.37          12.63          13.71           65.4          7.942          11.41         -167.7          32.86          105.3           54.6          56.95
  0.006195              -27.55           12.7          14.19          65.26          7.851          11.28         -167.5          32.46          104.1           54.3          56.85
  0.006354              -27.76           12.8          14.78          65.09           7.74          11.13         -167.3          31.96          102.6          53.94          56.73
  0.006512              -28.03          12.92          15.51          64.87            7.6          10.95         -167.0          31.33          100.7          53.49          56.58
  0.006671              -28.37          13.07          16.44          64.59          7.425          10.71         -166.6          30.55          98.26          52.91          56.39
   0.00683               -28.8          13.25          17.62          64.24          7.202          10.41         -166.2          29.55          95.22          52.19          56.14
  0.006989              -29.35           13.5          19.12          63.79          6.917          10.03         -165.6          28.27          91.33          51.26          55.82
  0.007148              -30.05          13.81          21.06          63.21          6.551          9.534         -164.8          26.62          86.34          50.06          55.42
  0.007307              -30.95           14.2          23.52          62.47          6.083          8.904         -163.8          24.53          79.97          48.54          54.91
  0.007465              -32.08           14.7          26.63          61.54          5.495          8.112         -162.6          21.89          71.95          46.62          54.26
  0.007624              -33.46          15.31          30.41          60.41          4.779          7.148         -161.1          18.67          62.18          44.28          53.47
